<?xml version="1.0" standalone="no"?>
<!DOCTYPE svg PUBLIC "-//W3C//DTD SVG 20010904//EN"
 "http://www.w3.org/TR/2001/REC-SVG-20010904/DTD/svg10.dtd">
<svg version="1.0" xmlns="http://www.w3.org/2000/svg"
 width="621.000000pt" height="236.000000pt" viewBox="0 0 621.000000 236.000000"
 preserveAspectRatio="xMidYMid meet">
<metadata>
Created by potrace 1.13, written by Peter Selinger 2001-2015
</metadata>
<g transform="translate(0.000000,236.000000) scale(0.100000,-0.100000)"
fill="#000000" stroke="none">
<path d="M1257 2314 c-4 -4 -7 -16 -7 -26 0 -10 -4 -18 -8 -18 -5 0 -9 -6 -9
-12 -1 -7 -6 -28 -12 -45 -6 -18 -16 -48 -22 -65 -6 -18 -13 -49 -15 -68 -3
-19 -8 -42 -11 -50 -3 -8 -7 -28 -9 -45 -9 -59 -36 -170 -45 -187 -5 -10 -9
-25 -9 -33 0 -11 -11 -15 -37 -16 -21 0 -47 -2 -58 -4 -11 -2 -49 -9 -85 -16
-70 -12 -187 -48 -235 -72 -28 -14 -55 -26 -140 -62 -19 -8 -50 -21 -67 -29
-53 -23 -107 -31 -213 -31 l-100 0 -3 -29 c-2 -15 -1 -38 2 -50 9 -34 96 -114
167 -153 57 -30 76 -35 174 -43 61 -5 153 -15 205 -23 52 -9 150 -18 218 -22
68 -3 148 -11 178 -16 30 -5 78 -13 107 -18 29 -5 71 -19 94 -30 22 -12 54
-26 71 -30 27 -8 34 -6 54 18 13 15 52 46 88 68 36 23 74 50 86 60 11 10 33
25 50 33 16 8 48 27 71 42 23 15 48 28 55 28 10 0 10 3 -1 9 -12 8 -9 11 11
16 28 7 55 33 54 51 -1 16 -89 123 -102 124 -13 0 -58 47 -73 76 -6 12 -31 35
-56 50 -26 17 -45 37 -45 47 0 10 -11 28 -23 40 -13 12 -30 33 -37 47 -7 14
-28 38 -46 53 -19 16 -34 34 -34 42 0 7 -7 18 -15 25 -9 7 -14 19 -11 25 2 7
-1 18 -7 24 -6 6 -8 11 -3 11 4 0 -2 12 -13 26 -11 15 -18 30 -15 35 3 5 1 9
-4 9 -11 0 -69 161 -74 205 -3 28 -25 44 -41 29z"/>
<path d="M6047 2146 c-11 -17 -24 -33 -27 -36 -3 -3 -23 -27 -45 -55 -66 -82
-232 -240 -326 -311 -14 -10 -50 -37 -80 -59 -30 -22 -80 -53 -112 -68 -32
-15 -55 -32 -52 -37 3 -5 -4 -14 -15 -20 -11 -6 -20 -7 -20 -3 0 4 -4 3 -8 -4
-4 -6 -20 -14 -36 -17 -24 -4 -119 -48 -186 -85 -35 -20 -67 -32 -88 -34 -12
0 -22 -5 -22 -9 0 -4 -9 -8 -20 -8 -11 0 -39 -4 -62 -10 -220 -50 -391 -72
-573 -73 -186 -1 -337 14 -460 46 -22 6 -49 11 -60 13 -39 5 -69 14 -79 24
-14 14 -33 13 -39 -3 -6 -16 24 -50 113 -127 35 -30 72 -63 82 -72 10 -10 22
-18 26 -18 5 0 17 -8 28 -18 82 -74 315 -192 381 -192 9 0 24 -6 32 -14 13
-11 164 -47 256 -62 11 -1 30 -5 43 -8 52 -13 68 -15 165 -22 180 -13 331 -7
468 19 9 1 24 10 33 20 16 16 14 22 -7 18 -12 -2 -79 21 -96 33 -7 6 -18 11
-25 12 -27 5 -84 42 -78 50 7 9 75 33 115 41 10 2 29 10 42 19 13 8 26 15 29
15 20 -2 67 14 77 25 6 8 17 14 23 14 7 0 48 19 92 42 43 22 89 46 101 52 13
6 23 14 23 19 0 4 5 7 11 7 6 0 17 6 24 13 7 6 35 30 62 52 88 74 126 114 120
129 -4 10 -14 13 -29 10 -13 -2 -44 -6 -70 -8 -37 -3 -48 -1 -48 11 0 8 33 54
73 101 63 75 99 125 155 217 43 71 114 252 117 300 1 11 7 30 13 42 31 58 -3
82 -41 29z m-163 -325 c3 -4 -3 -19 -14 -31 -11 -13 -20 -27 -20 -32 0 -25
-187 -248 -207 -248 -7 0 -13 -3 -13 -7 0 -13 -78 -93 -90 -93 -5 0 -10 -4
-10 -9 0 -19 30 -31 79 -32 28 -1 54 -6 57 -11 6 -9 -34 -47 -51 -48 -5 0 -28
-14 -49 -30 -22 -17 -43 -30 -48 -30 -5 0 -42 -16 -82 -35 -41 -19 -80 -35
-88 -35 -14 0 -59 39 -90 78 -10 12 -15 22 -11 22 3 0 -2 9 -12 20 -19 22 -30
78 -17 95 13 18 71 55 86 55 8 0 18 5 21 10 4 6 11 8 16 5 5 -4 9 -1 9 6 0 7
3 9 6 6 4 -3 18 2 32 13 13 11 28 17 33 14 8 -5 48 12 59 25 5 6 18 14 90 58
56 33 220 164 220 175 0 4 6 8 13 8 6 0 23 13 37 29 27 32 36 36 44 22z"/>
<path d="M934 2072 c-4 -26 -9 -54 -11 -62 -2 -8 -4 -65 -6 -126 -1 -82 2
-115 12 -127 7 -9 18 -14 25 -10 6 4 36 12 66 19 49 10 55 13 54 35 -1 19 -65
220 -91 289 -4 8 -6 17 -5 20 0 3 -8 6 -18 7 -14 1 -20 -9 -26 -45z"/>
<path d="M2736 1643 c-2 -2 -60 -6 -128 -8 -67 -1 -139 -8 -158 -14 -19 -6
-48 -11 -65 -11 -18 0 -35 -7 -41 -17 -6 -10 -33 -24 -60 -31 -27 -7 -57 -18
-66 -23 -10 -5 -29 -9 -43 -9 -14 0 -33 -4 -43 -9 -9 -5 -24 -12 -32 -15 -20
-8 -47 -26 -75 -51 -43 -38 -54 -45 -68 -45 -7 0 -17 -4 -23 -9 -15 -14 -84
-51 -96 -51 -6 0 -27 -15 -48 -32 -56 -50 -76 -65 -102 -79 -13 -6 -37 -24
-54 -38 -17 -14 -51 -42 -75 -61 -24 -19 -56 -46 -70 -60 -14 -14 -30 -27 -35
-29 -13 -5 -219 -186 -348 -305 -60 -56 -119 -110 -131 -121 -73 -66 -104 -97
-141 -136 -22 -24 -67 -68 -98 -96 -31 -29 -55 -53 -52 -53 2 0 -27 -32 -65
-71 -38 -39 -69 -77 -69 -85 0 -8 -4 -13 -9 -12 -13 4 -81 -71 -81 -88 0 -11
5 -11 28 -2 15 7 34 17 42 23 8 6 56 31 105 55 50 25 92 48 93 52 2 5 7 6 12
3 4 -3 13 2 20 10 7 8 18 15 25 15 7 0 60 25 117 55 56 30 166 87 243 126 77
39 158 82 180 95 22 13 47 23 56 24 9 0 22 6 28 13 6 8 29 20 51 27 22 7 40
17 40 22 0 5 4 7 9 4 5 -3 14 1 21 9 7 8 17 15 23 15 5 0 48 18 96 41 182 87
324 149 339 149 5 0 23 7 40 15 17 9 40 18 50 20 11 2 46 16 78 31 31 15 72
28 91 30 18 2 39 7 46 11 6 4 21 9 32 10 11 2 31 7 45 12 14 5 52 14 85 21 33
6 85 17 115 25 164 40 448 56 630 36 159 -18 182 -21 215 -31 17 -5 50 -14 75
-20 25 -7 60 -18 78 -26 18 -8 38 -14 45 -14 15 0 230 -102 238 -113 3 -5 14
-9 23 -11 10 -1 21 -7 24 -12 4 -5 24 -18 45 -29 21 -11 47 -28 58 -38 10 -10
19 -16 19 -13 0 3 18 -11 39 -32 37 -34 85 -72 95 -73 2 -1 49 -44 104 -97
103 -100 247 -262 264 -297 5 -11 20 -28 33 -38 23 -17 23 -14 -8 45 -18 35
-34 68 -34 73 -1 6 -13 24 -27 42 -15 18 -26 39 -26 47 0 8 -6 19 -14 23 -7 4
-21 24 -31 43 -10 19 -24 43 -33 53 -8 9 -20 26 -26 37 -21 37 -125 185 -146
207 -11 13 -20 26 -19 30 4 24 -392 463 -417 463 -4 0 -24 18 -45 40 -22 22
-46 40 -54 40 -8 0 -15 6 -15 13 0 7 -23 23 -52 36 -28 12 -70 35 -92 50 -23
15 -59 36 -81 46 -42 21 -44 23 -90 58 -16 12 -43 24 -59 26 -16 1 -40 10 -52
18 -12 8 -47 17 -76 20 -29 3 -58 10 -65 15 -6 5 -39 11 -72 13 -33 2 -69 9
-81 15 -19 10 -194 13 -204 3z"/>
</g>
</svg>
