<?xml version="1.0" standalone="no"?>
<!DOCTYPE svg PUBLIC "-//W3C//DTD SVG 20010904//EN"
 "http://www.w3.org/TR/2001/REC-SVG-20010904/DTD/svg10.dtd">
<svg version="1.0" xmlns="http://www.w3.org/2000/svg"
 width="621.000000pt" height="236.000000pt" viewBox="0 0 621.000000 236.000000"
 preserveAspectRatio="xMidYMid meet">
<metadata>
Created by potrace 1.13, written by Peter Selinger 2001-2015
</metadata>
<g transform="translate(0.000000,236.000000) scale(0.100000,-0.100000)"
fill="#000000" stroke="none">
<path d="M1224 2319 c-11 -12 -21 -44 -25 -77 -4 -31 -18 -89 -32 -128 -14
-39 -30 -104 -38 -143 -7 -40 -16 -74 -21 -77 -4 -3 -8 -29 -8 -58 l0 -54 -49
-16 c-27 -9 -60 -16 -73 -16 -130 0 -210 -26 -438 -138 l-95 -47 -132 0 c-125
0 -132 -1 -157 -24 -27 -25 -34 -55 -16 -66 6 -3 10 -14 10 -23 1 -22 42 -70
105 -122 66 -54 197 -94 360 -110 66 -6 140 -16 165 -22 25 -6 128 -13 230
-15 154 -5 191 -9 222 -24 21 -11 47 -19 58 -19 11 0 38 -9 58 -19 45 -23 74
-19 127 20 22 16 56 36 75 45 31 14 61 37 147 113 12 10 46 33 77 50 56 33 86
73 86 117 0 16 -36 60 -117 142 -123 123 -139 141 -188 207 -17 22 -33 41 -37
43 -14 6 -93 116 -114 157 -11 22 -31 78 -43 125 -32 117 -40 137 -71 170 -33
36 -41 37 -66 9z m55 -55 c5 -5 21 -54 36 -109 32 -122 61 -182 126 -260 27
-33 68 -85 91 -115 23 -30 89 -104 147 -164 58 -60 114 -118 125 -128 15 -17
16 -24 7 -45 -12 -27 -45 -56 -92 -83 -45 -26 -129 -91 -129 -101 0 -5 -20
-18 -44 -29 -24 -10 -47 -23 -50 -29 -4 -6 -27 -23 -52 -37 l-44 -26 -45 21
c-25 12 -52 21 -60 21 -9 0 -32 8 -53 19 -31 15 -68 19 -222 24 -102 2 -205 9
-230 15 -25 6 -99 16 -165 23 -186 18 -277 45 -355 105 -27 21 -50 41 -50 45
0 4 -6 14 -13 21 -24 25 -39 70 -27 82 7 7 61 11 143 11 l132 0 95 47 c178 89
261 121 335 129 88 10 226 39 241 51 7 5 15 46 19 91 4 45 11 87 15 92 4 6 12
35 18 65 21 104 24 115 42 150 10 20 20 56 21 82 3 45 16 56 38 32z"/>
<path d="M6060 2188 c-36 -21 -82 -73 -162 -186 -26 -36 -53 -71 -61 -77 -21
-15 -127 -107 -146 -126 -69 -70 -183 -149 -215 -149 -8 0 -20 -9 -25 -19 -6
-10 -25 -24 -42 -30 -18 -6 -46 -21 -63 -34 -80 -60 -194 -109 -301 -131 -33
-7 -71 -19 -85 -28 -14 -9 -63 -24 -110 -33 -47 -9 -112 -22 -145 -30 -39 -9
-124 -14 -240 -14 -269 -1 -345 3 -398 22 -26 9 -72 17 -101 17 -30 0 -85 10
-122 21 -38 12 -69 20 -70 18 0 -2 -9 4 -19 14 -21 22 -40 9 -30 -22 17 -55
355 -351 401 -351 6 0 17 -6 23 -14 7 -8 36 -20 64 -26 65 -14 169 -46 194
-59 10 -5 68 -22 128 -36 61 -15 128 -31 150 -36 77 -19 292 -33 470 -32 159
2 182 4 205 21 47 35 42 40 -92 102 -49 22 -88 44 -88 49 0 9 47 29 90 37 124
24 339 119 425 189 67 54 195 180 195 192 0 27 -32 43 -86 43 l-55 0 87 95
c97 105 131 157 170 260 15 39 49 115 75 170 52 106 60 150 32 183 -18 20 -18
20 -53 0z m26 -50 c-4 -13 -9 -32 -11 -42 -3 -11 -23 -57 -45 -103 -22 -46
-40 -86 -40 -89 0 -10 -29 -74 -63 -142 -36 -72 -104 -159 -121 -154 -6 2 -8
0 -3 -4 4 -4 -18 -33 -49 -65 -32 -33 -52 -59 -45 -63 5 -4 8 -13 4 -21 -6
-16 -3 -17 75 -17 28 0 52 -4 52 -8 0 -5 -15 -20 -32 -35 -18 -14 -58 -51 -89
-80 -44 -42 -88 -70 -200 -125 -122 -59 -162 -73 -254 -91 -61 -11 -116 -25
-122 -31 -39 -32 6 -89 111 -137 l81 -38 -145 -7 c-93 -5 -173 -4 -223 3 -43
6 -108 11 -145 11 -36 0 -79 4 -96 10 -17 5 -78 21 -136 36 -58 14 -150 41
-205 59 -55 18 -126 38 -157 44 -31 7 -62 19 -68 27 -7 7 -18 14 -25 14 -19 0
-122 73 -179 127 -28 27 -75 69 -105 93 -51 42 -57 65 -10 40 12 -7 66 -16
120 -21 56 -4 112 -15 130 -25 25 -12 46 -15 87 -10 37 4 73 1 114 -10 44 -13
62 -14 71 -5 7 7 61 11 157 11 97 0 161 5 191 14 47 15 239 51 252 48 4 -1 7
2 7 7 0 9 68 33 127 46 18 3 42 14 55 24 13 10 47 24 75 30 29 7 70 25 90 40
32 23 62 39 83 46 14 4 75 42 89 55 9 9 34 24 55 34 22 10 95 68 164 130 68
61 134 116 146 123 12 6 36 33 53 60 17 26 41 58 53 71 11 12 18 22 14 22 -4
0 9 16 30 36 20 19 44 46 52 60 20 30 39 31 30 2z"/>
<path d="M5831 1804 c-19 -14 -60 -48 -91 -77 -103 -95 -131 -117 -186 -148
-30 -17 -57 -35 -60 -40 -3 -5 -12 -9 -21 -9 -8 0 -29 -10 -46 -22 -18 -13
-39 -23 -48 -24 -22 -1 -172 -75 -181 -89 -14 -19 -8 -75 10 -103 28 -43 85
-100 115 -115 23 -12 36 -12 83 -1 58 13 75 22 157 85 29 21 57 39 62 39 19 0
74 56 67 68 -10 14 -57 32 -88 32 -24 0 -22 3 28 62 29 34 88 99 131 143 42
45 77 86 77 91 0 6 14 31 30 57 17 26 30 54 30 62 0 22 -30 17 -69 -11z m-23
-81 c-7 -16 -28 -44 -48 -63 -19 -19 -64 -69 -100 -110 -36 -41 -85 -93 -109
-116 -58 -56 -52 -74 26 -75 58 0 58 0 33 -17 -13 -9 -43 -31 -65 -49 -55 -44
-92 -64 -147 -78 -40 -11 -49 -10 -71 4 -38 24 -97 103 -97 128 0 24 83 76
147 92 35 8 77 29 172 86 18 11 54 37 80 57 25 21 69 55 97 77 28 21 58 51 67
65 23 34 30 33 15 -1z"/>
<path d="M942 2158 c-5 -7 -22 -56 -36 -108 -27 -100 -33 -193 -15 -233 10
-21 17 -24 62 -23 29 1 69 8 90 15 39 13 39 13 34 60 -2 25 -14 71 -26 101
-13 30 -26 69 -30 85 -10 39 -36 88 -54 103 -11 10 -17 9 -25 0z m38 -110 c5
-18 18 -58 30 -88 37 -92 36 -96 -2 -103 -18 -4 -45 -10 -61 -13 l-27 -6 5 58
c8 97 16 145 27 170 13 29 17 26 28 -18z"/>
<path d="M2540 1660 c-24 -13 -55 -19 -101 -20 -49 0 -72 -5 -90 -19 -13 -10
-53 -26 -89 -35 -36 -9 -74 -23 -85 -30 -11 -7 -38 -19 -59 -26 -21 -7 -57
-26 -80 -42 -39 -27 -94 -63 -259 -169 -40 -25 -90 -62 -112 -82 -22 -20 -44
-37 -48 -37 -5 0 -29 -18 -55 -39 -26 -21 -73 -53 -105 -71 -41 -23 -83 -61
-144 -131 -47 -55 -89 -99 -93 -99 -4 0 -25 -16 -46 -35 -21 -20 -61 -49 -87
-65 -26 -17 -46 -34 -43 -38 6 -11 -208 -218 -263 -255 -23 -15 -46 -38 -50
-51 -17 -44 -181 -211 -277 -282 -24 -18 -27 -25 -18 -40 16 -27 60 -29 108
-5 22 11 66 29 96 41 30 12 69 33 87 46 17 13 43 28 57 34 14 5 26 13 26 18 0
4 30 17 67 27 42 12 95 39 144 72 80 55 126 78 170 87 14 3 42 19 63 35 20 16
55 32 76 36 22 4 42 11 46 16 3 5 23 18 45 29 21 11 39 26 39 33 0 8 29 20 71
30 43 10 101 33 143 58 39 24 96 57 126 75 30 18 73 35 95 39 22 4 80 27 129
51 49 24 97 44 106 44 10 0 66 18 125 40 59 22 120 40 134 40 14 0 39 7 55 15
29 15 104 34 241 60 82 16 523 11 615 -6 30 -6 100 -27 155 -46 55 -19 114
-37 132 -40 17 -3 60 -20 95 -38 35 -18 98 -51 141 -74 137 -72 265 -165 363
-265 35 -35 64 -69 64 -74 0 -16 52 -53 66 -48 8 3 11 0 8 -9 -3 -7 3 -18 14
-24 11 -6 23 -23 27 -38 3 -16 15 -37 25 -48 11 -11 34 -37 51 -58 39 -47 111
-97 138 -97 22 0 51 35 51 61 0 9 -29 50 -65 92 -35 42 -80 106 -100 144 -20
37 -46 77 -58 88 -34 32 -99 114 -146 185 -23 36 -68 93 -101 126 -32 34 -71
80 -86 103 -14 23 -30 41 -33 41 -12 0 -83 99 -77 108 6 10 -48 63 -114 112
-25 18 -66 55 -92 81 -26 26 -69 57 -95 69 -26 13 -61 33 -78 45 -16 12 -52
34 -80 50 -27 16 -63 41 -80 56 -16 15 -75 46 -130 68 -80 32 -117 42 -184 46
-46 3 -86 7 -90 9 -3 2 -51 7 -106 10 -55 4 -144 13 -197 21 -123 19 -135 18
-178 -5z m200 -40 c96 -12 281 -29 383 -35 37 -3 81 -11 97 -20 16 -8 36 -15
45 -15 23 0 107 -44 135 -72 14 -14 47 -35 74 -48 27 -13 63 -36 80 -51 17
-15 55 -38 83 -51 29 -13 81 -52 117 -86 35 -34 68 -62 73 -62 18 0 85 -75
108 -121 13 -25 39 -59 57 -75 18 -16 46 -49 63 -73 16 -25 49 -63 73 -85 24
-23 69 -79 101 -126 82 -123 121 -176 167 -234 23 -28 48 -64 57 -81 8 -16 38
-55 66 -85 67 -73 80 -110 33 -96 -11 4 -32 24 -46 46 -14 22 -33 40 -41 40
-9 0 -20 11 -27 25 -6 13 -16 22 -22 18 -6 -3 -8 -3 -4 2 12 13 -22 67 -77
120 -29 27 -54 55 -56 60 -8 19 -155 149 -206 182 -15 10 -37 26 -48 36 -11
10 -32 26 -47 35 -16 9 -28 20 -28 24 0 4 -9 8 -19 8 -11 0 -21 4 -23 8 -1 5
-30 22 -63 38 -33 17 -95 49 -138 72 -44 23 -86 42 -94 42 -9 0 -68 17 -132
39 -172 57 -197 61 -374 61 -89 1 -182 5 -207 10 -78 15 -309 -22 -448 -71
-30 -10 -64 -19 -78 -19 -13 0 -70 -18 -126 -40 -57 -22 -112 -40 -122 -40
-11 0 -61 -20 -111 -44 -50 -25 -109 -48 -131 -52 -46 -8 -89 -28 -127 -60
-16 -13 -32 -24 -37 -24 -4 0 -33 -15 -65 -34 -31 -19 -80 -40 -107 -46 -62
-13 -138 -45 -138 -58 0 -10 -44 -42 -64 -47 -37 -8 -84 -30 -125 -60 -19 -14
-43 -25 -54 -25 -11 0 -70 -31 -131 -68 -62 -38 -138 -77 -171 -87 -33 -10
-82 -35 -110 -54 -55 -39 -154 -91 -175 -91 -7 0 -28 -9 -46 -21 -19 -11 -34
-16 -34 -10 0 6 4 11 9 11 19 0 221 208 242 248 18 36 81 92 104 92 9 0 235
231 235 241 0 5 18 18 39 29 22 10 47 30 58 43 10 12 35 33 56 46 21 13 44 35
51 49 8 15 29 41 48 59 18 17 47 45 63 62 17 17 36 31 43 31 6 0 12 4 12 9 0
8 57 48 165 116 17 11 49 37 71 58 21 22 70 58 108 80 108 65 130 79 203 128
84 57 204 113 275 128 29 7 66 20 83 30 16 9 54 18 83 20 30 1 75 11 100 21
26 10 61 17 77 15 17 -2 68 -9 115 -15z"/>
</g>
</svg>
