<?xml version="1.0" standalone="no"?>
<!DOCTYPE svg PUBLIC "-//W3C//DTD SVG 20010904//EN"
 "http://www.w3.org/TR/2001/REC-SVG-20010904/DTD/svg10.dtd">
<svg version="1.0" xmlns="http://www.w3.org/2000/svg"
 width="497.000000pt" height="401.000000pt" viewBox="0 0 497.000000 401.000000"
 preserveAspectRatio="xMidYMid meet">
<metadata>
Created by potrace 1.13, written by Peter Selinger 2001-2015
</metadata>
<g transform="translate(0.000000,401.000000) scale(0.100000,-0.100000)"
fill="#000000" stroke="none">
<path d="M4660 3701 c-8 -12 -21 -21 -28 -21 -8 0 -28 -10 -45 -22 -42 -31
-64 -41 -117 -58 -25 -7 -49 -17 -55 -21 -20 -14 -243 -61 -324 -69 -46 -4
-115 -4 -155 0 -76 9 -87 6 -147 -41 -20 -16 -42 -29 -47 -29 -6 0 -15 -6 -19
-14 -4 -7 -18 -18 -29 -24 -12 -6 -27 -25 -34 -42 -7 -16 -18 -30 -25 -30 -8
0 -15 -3 -17 -7 -8 -19 -110 -62 -193 -83 -104 -25 -208 -59 -215 -70 -3 -4
-22 -15 -42 -23 -21 -9 -38 -21 -38 -26 0 -6 -13 -17 -30 -26 -16 -9 -30 -19
-30 -23 0 -5 -38 -48 -85 -98 -62 -65 -85 -96 -85 -115 0 -24 5 -27 63 -38 82
-16 158 -41 175 -58 7 -7 24 -16 38 -19 13 -3 33 -22 45 -41 12 -19 30 -42 39
-51 31 -31 43 -107 32 -203 -11 -86 -5 -140 15 -146 12 -4 132 58 165 86 13
10 57 44 98 75 97 72 105 61 22 -31 -13 -14 -21 -30 -19 -37 8 -25 53 -15 160
37 62 30 123 58 136 62 22 7 23 5 16 -21 -12 -47 -11 -58 7 -62 19 -4 108 37
108 49 0 18 312 159 430 194 44 13 76 28 77 36 19 171 41 307 52 334 5 11 17
40 27 65 22 54 73 130 88 130 12 0 81 73 90 95 3 8 10 15 16 15 5 0 10 7 10
15 0 8 3 15 8 15 4 0 16 16 27 36 18 34 18 38 3 64 -15 26 -15 34 -2 76 13 42
12 53 -2 90 -19 49 -58 81 -111 90 -31 4 -41 2 -53 -15z"/>
<path d="M295 2923 c-15 -22 -17 -40 -11 -110 3 -47 17 -119 30 -161 14 -42
27 -89 30 -104 7 -30 102 -152 184 -236 28 -30 52 -58 52 -63 0 -5 7 -9 15 -9
8 0 15 -4 15 -8 0 -9 143 -97 205 -126 112 -52 335 -106 440 -106 38 0 127 5
198 12 122 11 127 13 127 34 0 19 -9 26 -42 35 -24 7 -51 19 -60 27 -21 18
-78 51 -100 58 -10 4 -18 10 -18 15 0 5 -6 9 -12 9 -7 0 -30 16 -51 35 -21 19
-42 35 -48 35 -5 0 -9 4 -9 10 0 12 -89 100 -101 100 -5 0 -9 6 -9 14 0 7 -11
22 -25 32 -14 10 -47 45 -72 78 -39 49 -44 61 -35 77 10 15 8 20 -14 31 -15 7
-36 29 -48 49 -11 19 -37 58 -56 85 -111 159 -118 163 -155 82 -14 -29 -25
-61 -25 -70 0 -25 -12 -28 -56 -17 -102 27 -187 82 -279 182 -19 20 -39 37
-44 37 -5 0 -17 -12 -26 -27z"/>
<path d="M4498 2588 c-21 -11 -38 -25 -38 -31 0 -7 -17 -22 -38 -35 -60 -36
-75 -46 -90 -59 -7 -7 -20 -13 -28 -13 -8 0 -14 -4 -14 -9 0 -18 -203 -90
-325 -115 -44 -10 -100 -22 -125 -29 -31 -8 -165 -12 -420 -13 -206 -1 -467
-2 -579 -3 -111 0 -213 2 -225 5 -13 3 -52 1 -89 -4 -46 -6 -68 -5 -71 2 -3 8
-7 7 -13 -1 -5 -7 -69 -26 -143 -42 -124 -27 -310 -85 -352 -111 -10 -5 -24
-10 -32 -10 -7 0 -19 -7 -26 -15 -7 -8 -24 -15 -38 -15 -14 0 -40 -11 -58 -25
-18 -14 -40 -25 -48 -25 -9 0 -16 -4 -16 -9 0 -5 -8 -12 -18 -15 -9 -3 -32
-19 -50 -36 -18 -16 -39 -30 -45 -30 -16 -1 -57 -36 -57 -49 0 -6 -5 -11 -10
-11 -6 0 -19 -8 -30 -17 -10 -10 -31 -28 -44 -40 -14 -13 -29 -23 -33 -23 -5
0 -20 -12 -34 -27 -30 -32 -70 -67 -118 -103 -133 -101 -372 -331 -442 -427
-23 -32 -57 -73 -76 -92 -18 -19 -33 -38 -33 -42 0 -5 -12 -22 -28 -38 -41
-45 -52 -59 -52 -68 0 -4 -12 -19 -25 -32 -14 -13 -25 -29 -25 -35 0 -7 -8
-21 -17 -32 -10 -11 -27 -37 -38 -59 -11 -22 -29 -53 -41 -70 -21 -30 -34 -57
-73 -148 -25 -57 -25 -67 -8 -91 16 -22 24 -19 97 44 29 25 84 63 124 84 39
21 73 42 76 46 3 5 50 31 105 60 55 29 146 77 202 106 56 30 124 63 150 73 26
10 73 30 103 44 119 53 278 117 342 137 37 11 75 28 84 38 17 16 162 71 259
97 48 13 109 29 225 62 30 8 76 19 101 23 26 5 69 16 95 25 27 9 73 19 102 22
29 3 55 10 58 14 3 5 20 9 38 9 17 0 37 5 42 10 10 10 112 15 149 7 11 -2 26
0 33 6 19 15 191 2 227 -17 17 -9 35 -16 40 -16 6 0 21 -14 34 -30 13 -17 28
-30 33 -30 31 0 227 -190 308 -300 29 -38 63 -76 76 -85 13 -8 33 -32 45 -53
13 -21 35 -46 51 -55 15 -9 28 -22 28 -29 0 -7 19 -29 42 -48 22 -19 47 -48
55 -65 8 -16 30 -55 48 -85 19 -30 38 -61 42 -68 5 -8 29 -16 54 -19 37 -4 46
-2 46 11 0 9 -6 16 -14 16 -7 0 -13 6 -13 13 0 34 56 295 91 420 11 43 51 128
108 232 21 39 57 108 80 155 23 47 65 121 93 165 29 44 66 103 84 130 17 28
42 59 54 70 12 11 26 30 31 43 5 13 17 22 29 22 16 0 20 7 20 31 0 37 45 99
71 99 15 0 17 5 13 30 -4 18 0 43 9 63 20 40 37 180 37 297 0 91 -32 220 -56
220 -6 0 -14 9 -17 20 -6 25 -21 24 -69 -2z"/>
</g>
</svg>
